<svg width="140" height="25" viewBox="0 0 140 25" fill="none" xmlns="http://www.w3.org/2000/svg">
  <path d="M1.91055 18.7064C2.90618 19.4599 4.17091 19.8366 5.67782 19.8366C6.83491 19.8366 7.85745 19.6482 8.71854 19.2984C9.55273 18.9486 10.2255 18.4373 10.6829 17.7915C11.1404 17.1726 11.3556 16.4461 11.3556 15.6657C11.3556 14.7239 11.1135 13.9435 10.656 13.3784C10.1716 12.8133 9.60655 12.4097 8.96073 12.1675C8.288 11.9253 7.42691 11.6562 6.37745 11.4141C5.59709 11.2257 5.00509 11.0642 4.57455 10.9297C4.11709 10.7952 3.76727 10.5799 3.47127 10.3108C3.17527 10.0417 3.04073 9.69189 3.04073 9.26134C3.04073 8.72316 3.256 8.29261 3.71345 7.9697C4.17091 7.6737 4.81673 7.51225 5.67782 7.51225C7.104 7.51225 8.01891 8.02352 8.39564 9.01916H11.1135C10.8713 7.80825 10.2524 6.86643 9.28364 6.1937C8.288 5.54789 7.104 5.22498 5.67782 5.22498C4.62836 5.22498 3.68655 5.41334 2.90618 5.76316C2.12582 6.13989 1.50691 6.62425 1.10327 7.24316C0.672727 7.86207 0.457455 8.53479 0.457455 9.26134C0.457455 10.257 0.699636 11.0642 1.184 11.6293C1.66836 12.2213 2.26036 12.6519 2.93309 12.8941C3.60582 13.1363 4.46691 13.3784 5.51636 13.6206C6.29673 13.809 6.88873 13.9435 7.29236 14.0781C7.696 14.2126 8.04582 14.4279 8.34182 14.6701C8.61091 14.9122 8.74545 15.2621 8.74545 15.6657C8.74545 16.2308 8.50327 16.6613 7.992 17.0112C7.48073 17.361 6.72727 17.5493 5.67782 17.5493C4.95127 17.5493 4.33236 17.3879 3.79418 17.0381C3.256 16.7152 2.90618 16.2577 2.74473 15.6926H0C0.269091 16.9573 0.914909 17.9799 1.91055 18.7064Z" 
    fill="black">
  </path>
  <path d="M12.4152 19.5675H14.9715V11.0912C14.9715 10.0955 15.2945 9.26134 15.9672 8.58861C16.613 7.91589 17.4203 7.56607 18.4159 7.56607C19.3846 7.56607 20.165 7.86207 20.757 8.48098C21.3221 9.09989 21.6181 9.98789 21.6181 11.0912V19.5675H24.1745V10.9028C24.1745 9.7457 23.9592 8.75007 23.5017 7.88898C23.0443 7.02789 22.3985 6.35516 21.6181 5.8977C20.8377 5.44025 19.9228 5.22498 18.9272 5.22498C18.1199 5.22498 17.3665 5.38643 16.6937 5.70934C15.9941 6.05916 15.429 6.57043 14.9715 7.29698H14.837L14.5141 5.49407H12.4152V19.5675Z" 
    fill="black">
  </path>
  <path d="M35.3796 6.59734C34.3839 5.68243 33.0116 5.22498 31.2625 5.22498C29.7825 5.22498 28.5716 5.57479 27.6028 6.30134C26.6341 7.02789 25.9883 8.02352 25.6654 9.28825H28.3294C28.5177 8.75007 28.8407 8.31952 29.3519 7.99661C29.8632 7.6737 30.4821 7.51225 31.2356 7.51225C32.1774 7.51225 32.9039 7.75443 33.469 8.23879C34.0341 8.75007 34.3032 9.4228 34.3032 10.2839V11.145H30.5628C28.8945 11.145 27.6028 11.5486 26.661 12.3559C25.7192 13.1632 25.2348 14.2126 25.2348 15.4773C25.2348 16.3115 25.4501 17.0381 25.8538 17.7108C26.2574 18.3835 26.8225 18.8948 27.549 19.2715C28.2756 19.6482 29.1367 19.8366 30.1054 19.8366C31.101 19.8366 31.9621 19.6213 32.7156 19.1908C33.469 18.7872 34.0072 18.3028 34.3032 17.7646H34.4378L34.7337 19.5675H36.8596V10.3377C36.8596 8.75007 36.3752 7.51225 35.3796 6.59734ZM33.2537 16.5806C32.5272 17.2533 31.5854 17.5763 30.4014 17.5763C29.5672 17.5763 28.9483 17.3879 28.4908 16.9843C28.0334 16.5806 27.7912 16.0693 27.7912 15.3966C27.7912 14.7508 28.0334 14.2395 28.5177 13.8359C28.9752 13.4592 29.6748 13.2708 30.6167 13.2708H34.3032V14.0512C34.3032 15.0737 33.9534 15.9079 33.2537 16.5806Z" 
    fill="black">
  </path>
  <path d="M48.4641 19.5675L49.1914 17.2264H40.8488L49.0568 7.48534V5.49407H37.9965V7.83516H45.2081L37.7274 17.5763V19.5675H48.4641Z" 
    fill="black">
  </path>
  <path d="M59.2004 19.5675V17.2264H51.5851L59.4295 7.1217L59.0659 5.49407H48.7328V7.83516H55.9444L48.4637 17.5763V19.5675H59.2004Z" 
    fill="black">
  </path>
  <path d="M64.7702 24.9493L72.4662 5.49407H69.7753L65.6313 16.1501H65.4967L61.1913 5.49407H58.4465L64.232 19.5675L62.0793 24.9493H64.7702Z" 
    fill="black">
  </path>
  <path d="M74.2748 18.9094C75.2704 19.6628 76.5352 20.0395 78.0421 20.0395C79.1992 20.0395 80.2217 19.8512 81.0828 19.5014C81.917 19.1515 82.5897 18.6403 83.0472 17.9944C83.5046 17.3755 83.7199 16.649 83.7199 15.8686C83.7199 14.9268 83.4777 14.1464 83.0203 13.5814C82.5359 13.0163 81.9708 12.6126 81.325 12.3704C80.6523 12.1283 79.7912 11.8592 78.7417 11.617C77.9613 11.4286 77.3693 11.2672 76.9388 11.1326C76.4813 10.9981 76.1315 10.7828 75.8355 10.5137C75.5395 10.2446 75.405 9.89481 75.405 9.46426C75.405 8.92608 75.6203 8.49554 76.0777 8.17263C76.5352 7.87663 77.181 7.71517 78.0421 7.71517C79.4683 7.71517 80.3832 8.22645 80.7599 9.22208H83.4777C83.2355 8.01117 82.6166 7.06936 81.6479 6.39663C80.6523 5.75081 79.4683 5.4279 78.0421 5.4279C76.9926 5.4279 76.0508 5.61626 75.2704 5.96608C74.4901 6.34281 73.8712 6.82717 73.4675 7.44608C73.037 8.06499 72.8217 8.73772 72.8217 9.46426C72.8217 10.4599 73.0639 11.2672 73.5483 11.8323C74.0326 12.4243 74.6246 12.8548 75.2973 13.097C75.9701 13.3392 76.8312 13.5814 77.8806 13.8235C78.661 14.0119 79.253 14.1464 79.6566 14.281C80.0603 14.4155 80.4101 14.6308 80.7061 14.873C80.9752 15.1152 81.1097 15.465 81.1097 15.8686C81.1097 16.4337 80.8675 16.8643 80.3563 17.2141C79.845 17.5639 79.0915 17.7523 78.0421 17.7523C77.3155 17.7523 76.6966 17.5908 76.1584 17.241C75.6203 16.9181 75.2704 16.4606 75.109 15.8955H72.3643C72.6333 17.1603 73.2792 18.1828 74.2748 18.9094Z" 
    fill="black">
  </path>
  <path d="M89.5962 19.7704H91.9103V17.4024H89.8922C89.4347 17.4024 89.0849 17.2679 88.7889 16.9719C88.4929 16.6759 88.3583 16.3261 88.3583 15.8686V8.06499H91.9103V5.69699H88.3583V1.92972H85.802V5.69699V8.06499V16.057C85.802 17.1603 86.1518 18.0752 86.8514 18.7479C87.5242 19.4206 88.4391 19.7704 89.5962 19.7704Z" 
    fill="black">
  </path>
  <path d="M95.7333 19.3399C96.5137 19.8243 97.4286 20.0395 98.4242 20.0395C99.2046 20.0395 99.9581 19.8781 100.658 19.5283C101.357 19.1784 101.922 18.6672 102.38 17.9675H102.514L102.81 19.7704H104.936V5.69699H102.38V14.1734C102.38 15.169 102.057 16.0032 101.411 16.6759C100.738 17.3486 99.9311 17.6984 98.9355 17.6984C97.9668 17.6984 97.1864 17.3755 96.6213 16.7566C96.0293 16.1377 95.7333 15.2766 95.7333 14.1734V5.69699H93.177V14.3348C93.177 15.4919 93.3922 16.5144 93.8497 17.3755C94.3071 18.2366 94.9261 18.8824 95.7333 19.3399Z" 
    fill="black">
  </path>
  <path d="M109.196 19.1784C110.111 19.7435 111.16 20.0395 112.344 20.0395C113.313 20.0395 114.174 19.8512 114.927 19.4744C115.681 19.0977 116.3 18.5864 116.757 17.9675H116.892L117.215 19.7704H119.313V0.934082H116.757V7.36536H116.623C116.165 6.80026 115.6 6.3159 114.873 5.96608C114.147 5.61626 113.313 5.4279 112.344 5.4279C111.16 5.4279 110.111 5.69699 109.196 6.26208C108.281 6.82717 107.554 7.66136 107.043 8.76463C106.532 9.8679 106.263 11.1864 106.263 12.7203C106.263 14.2541 106.532 15.5726 107.043 16.6759C107.554 17.7792 108.281 18.6134 109.196 19.1784ZM115.681 16.4068C114.954 17.2679 113.985 17.6984 112.801 17.6984C111.591 17.6984 110.649 17.2679 109.922 16.4068C109.196 15.5726 108.819 14.3348 108.819 12.7203C108.819 11.1326 109.196 9.89481 109.922 9.03372C110.649 8.19954 111.591 7.76899 112.801 7.76899C113.985 7.76899 114.954 8.19954 115.681 9.03372C116.407 9.89481 116.757 11.1326 116.757 12.7203C116.757 14.3079 116.407 15.5457 115.681 16.4068Z" 
    fill="black">
  </path>
  <path d="M123.986 19.7704V5.69699H121.429V19.7704H123.986Z" 
    fill="black">
  </path>
  <path d="M128.467 19.1784C129.462 19.7435 130.592 20.0395 131.911 20.0395C133.229 20.0395 134.387 19.7435 135.382 19.1784C136.378 18.6134 137.131 17.7792 137.696 16.6759C138.261 15.5726 138.531 14.2541 138.531 12.7203C138.531 11.1864 138.261 9.8679 137.723 8.76463C137.158 7.66136 136.378 6.82717 135.382 6.26208C134.387 5.69699 133.229 5.4279 131.911 5.4279C130.592 5.4279 129.435 5.69699 128.44 6.26208C127.444 6.82717 126.664 7.66136 126.125 8.76463C125.56 9.8679 125.291 11.1864 125.291 12.7203C125.291 14.2541 125.56 15.5726 126.125 16.6759C126.691 17.7792 127.471 18.6134 128.467 19.1784ZM134.844 16.4068C134.091 17.2679 133.122 17.6984 131.911 17.6984C130.7 17.6984 129.731 17.2679 128.978 16.4068C128.224 15.5457 127.848 14.3079 127.848 12.7203C127.848 11.1326 128.224 9.92172 128.978 9.06063C129.731 8.19954 130.7 7.76899 131.911 7.76899C133.122 7.76899 134.091 8.19954 134.844 9.06063C135.597 9.92172 135.974 11.1326 135.974 12.7203C135.974 14.3079 135.597 15.5457 134.844 16.4068Z" 
    fill="black">
  </path>
  <path d="M136.136 3.40669V1.5576H136.823V1.11578H134.958V1.5576H135.645V3.40669H136.136Z" 
    fill="black">
  </path>
  <path d="M137.395 3.40669V1.78669H137.411L137.968 3.40669H138.377L138.933 1.78669H138.949V3.40669H139.44V1.11578H138.73L138.187 2.71287H138.167L137.624 1.11578H136.904V3.40669H137.395Z" 
    fill="black">
  </path>
</svg>